HIERARCHY
ROOT Hips
{
 OFFSET 0.000000 0.000000 0.000000
 CHANNELS 6 Xposition Yposition Zposition Yrotation Xrotation Zrotation
 JOINT Chest
 {
  OFFSET 0.000000 10.678932 0.006280
  CHANNELS 3 Yrotation Xrotation Zrotation
  JOINT Chest2
  {
   OFFSET 0.000000 10.491159 -0.011408
   CHANNELS 3 Yrotation Xrotation Zrotation
   JOINT Chest3
   {
    OFFSET 0.000000 9.479342 0.000000
    CHANNELS 3 Yrotation Xrotation Zrotation
    JOINT Chest4
    {
     OFFSET 0.000000 9.479342 0.000000
     CHANNELS 3 Yrotation Xrotation Zrotation
     JOINT Neck
     {
      OFFSET 0.000000 13.535332 0.000000
      CHANNELS 3 Yrotation Xrotation Zrotation
      JOINT Head
      {
       OFFSET 0.000000 8.819083 -0.027129
       CHANNELS 3 Yrotation Xrotation Zrotation
       End Site
       {
        OFFSET 0.000000 16.966594 -0.014170
       }
      }
     }
     JOINT RightCollar
     {
      OFFSET -3.012546 7.545150 0.000000
      CHANNELS 3 Yrotation Xrotation Zrotation
      JOINT RightShoulder
      {
       OFFSET -13.683099 0.000000 0.000000
       CHANNELS 3 Yrotation Xrotation Zrotation
       JOINT RightElbow
       {
        OFFSET -26.359998 0.000000 0.000000
        CHANNELS 3 Yrotation Xrotation Zrotation
        JOINT RightWrist
        {
         OFFSET -21.746691 0.000000 0.008601
         CHANNELS 3 Yrotation Xrotation Zrotation
         End Site
         {
          OFFSET -16.348058 0.000000 0.000000
         }
        }
       }
      }
     }
     JOINT LeftCollar
     {
      OFFSET 3.012546 7.545150 0.000000
      CHANNELS 3 Yrotation Xrotation Zrotation
      JOINT LeftShoulder
      {
       OFFSET 13.683099 0.000000 0.000000
       CHANNELS 3 Yrotation Xrotation Zrotation
       JOINT LeftElbow
       {
        OFFSET 26.359998 0.000000 0.000000
        CHANNELS 3 Yrotation Xrotation Zrotation
        JOINT LeftWrist
        {
         OFFSET 21.746691 0.000000 0.008601
         CHANNELS 3 Yrotation Xrotation Zrotation
         End Site
         {
          OFFSET 16.348058 0.000000 0.000000
         }
        }
       }
      }
     }
    }
   }
  }
 }
 JOINT RightHip
 {
  OFFSET -8.622479 -0.030774 -0.003140
  CHANNELS 3 Yrotation Xrotation Zrotation
  JOINT RightKnee
  {
   OFFSET 0.000000 -37.209160 -0.002630
   CHANNELS 3 Yrotation Xrotation Zrotation
   JOINT RightAnkle
   {
    OFFSET 0.000000 -37.343279 -0.058479
    CHANNELS 3 Yrotation Xrotation Zrotation
    JOINT RightToe
    {
     OFFSET 0.000000 -8.903465 15.088070
     CHANNELS 3 Yrotation Xrotation Zrotation
     End Site
     {
      OFFSET 0.000000 -1.471739 6.884388
     }
    }
   }
  }
 }
 JOINT LeftHip
 {
  OFFSET 8.622479 -0.030774 -0.003140
  CHANNELS 3 Yrotation Xrotation Zrotation
  JOINT LeftKnee
  {
   OFFSET 0.000000 -37.209160 -0.002630
   CHANNELS 3 Yrotation Xrotation Zrotation
   JOINT LeftAnkle
   {
    OFFSET 0.000000 -37.343279 -0.058479
    CHANNELS 3 Yrotation Xrotation Zrotation
    JOINT LeftToe
    {
     OFFSET 0.000000 -8.903465 15.088070
     CHANNELS 3 Yrotation Xrotation Zrotation
     End Site
     {
      OFFSET 0.000000 -1.471739 6.884388
     }
    }
   }
  }
 }
}
MOTION
Frames: 13
Frame Time: 0.025000
-27.884307 76.479380 130.007220 -156.972041 -1.186042 2.843320 6.915385 8.203459 -1.074393 0.548703 0.656825 -0.133036 0.844038 1.011591 -0.202182 5.906131 7.190767 -1.110911 -5.058897 14.975332 -3.479154 -8.156507 -8.415320 -4.597820 -3.358024 -3.040985 -0.442500 7.918061 -25.266593 57.532675 36.814506 -0.504500 4.033580 -1.442415 -4.843965 -25.176347 -0.989480 -15.242749 18.729882 32.103793 -32.516640 -64.621403 -104.096856 -18.665206 6.790414 19.089375 5.925970 20.036081 -3.889578 -14.265918 -21.539508 26.102131 32.803551 3.056191 4.104384 -27.973402 13.428735 -0.011538 0.697334 -0.412225 -17.705745 -10.701097 21.137663 -10.826369 52.397232 -1.467518 -7.020213 -6.739473 -27.283434 -0.424437 -26.196633 1.119606
-28.208066 76.034368 130.335229 -159.825516 -0.842915 4.081796 7.637369 8.226652 -1.088897 0.601384 0.708792 -0.134178 0.920620 1.086351 -0.202523 6.186345 7.405084 -1.032501 -4.766329 14.401815 -4.629241 -7.162580 -9.509394 -6.851557 -2.694336 -2.788439 -0.169276 6.327525 -25.137734 58.148711 36.727497 1.163325 5.059953 -1.224293 -4.986209 -25.304838 1.369317 -15.073526 19.173117 32.722346 -30.340248 -63.053314 -104.567166 -18.360030 8.624838 19.209501 5.802585 19.850114 0.079177 -16.450382 -23.284638 26.672401 35.138602 3.866104 4.283152 -28.394178 13.979734 -0.280372 0.258834 -0.330503 -22.589006 -10.802429 18.298806 -11.621883 54.334917 -0.412053 -6.825492 -8.381563 -25.910298 -0.260195 -23.534000 0.946909
-28.494547 75.643935 130.642621 -161.021974 -1.225845 5.048874 7.466104 8.596361 -1.184158 0.609025 0.730016 -0.132488 0.931075 1.117367 -0.199549 6.188765 7.528917 -0.992131 -4.440832 14.165438 -5.146432 -6.343362 -9.947241 -7.948898 -2.242726 -2.147858 -0.517179 5.830694 -24.634900 57.776304 37.232376 0.831950 4.966876 -1.213897 -4.889954 -25.448429 3.319341 -14.032451 19.099033 33.403569 -28.922258 -62.202953 -104.636916 -18.852537 9.342822 19.525598 5.633513 19.698327 2.680906 -16.903833 -24.484396 26.372248 36.868121 3.708859 3.828510 -28.869474 14.489438 -0.268997 0.111156 -0.004134 -28.708712 -10.563054 15.723817 -11.831203 56.479638 -0.279204 -5.197314 -10.127086 -24.343533 -0.230388 -22.232924 -0.253048
-28.633857 75.361660 130.860858 -161.207235 -1.475973 5.620611 7.321779 8.802768 -1.245423 0.596193 0.735760 -0.140031 0.911549 1.126363 -0.211164 6.061216 7.602251 -1.075806 -4.099068 13.976844 -5.139574 -5.696908 -10.287641 -8.070126 -2.078215 -2.155064 -0.979087 5.829385 -23.767751 56.648556 37.155864 0.317478 4.069152 -1.412161 -4.863753 -25.418193 4.162587 -13.668924 18.818552 33.918129 -28.595491 -61.835539 -103.557640 -20.587382 8.545361 19.398632 5.517623 19.801859 3.074104 -17.458146 -24.608435 27.672429 38.136993 3.440273 2.713493 -29.374170 14.771306 -0.195421 0.087486 0.304320 -29.624924 -10.787602 14.513364 -11.769285 57.006390 0.035273 -5.326660 -11.732100 -22.279243 -0.126733 -19.861419 -0.906400
-28.654268 75.222073 131.057133 -160.101725 -1.795421 6.153574 6.836624 9.018791 -1.394909 0.554229 0.740238 -0.149065 0.848412 1.134721 -0.225478 5.692982 7.745864 -1.203140 -3.945712 13.722867 -4.913743 -5.489698 -10.754496 -7.704819 -1.823138 -2.800737 -1.446263 4.480698 -23.604475 55.771875 36.384247 0.126693 3.472014 -1.722922 -4.696961 -25.331331 3.585076 -13.666149 18.624486 33.414178 -28.911782 -61.405384 -101.599481 -21.416709 7.817408 19.193291 5.629984 20.450039 2.375268 -17.643466 -25.016577 28.249437 38.837488 3.304145 2.175680 -29.684493 14.873506 -0.157496 0.078463 0.344195 -27.960208 -10.943172 14.202611 -11.451531 56.184534 -0.072860 -5.772039 -12.495558 -19.926209 -0.011694 -18.543042 -1.940750
-28.556118 75.270382 131.116291 -157.648732 -2.398324 6.314862 6.099332 9.150285 -1.222597 0.487246 0.727254 -0.131665 0.748416 1.118500 -0.199870 5.168876 7.849936 -1.093874 -4.144170 13.621573 -4.639938 -5.971554 -10.946470 -7.107516 -1.203996 -3.183050 -2.156457 2.939147 -23.902180 55.089621 34.953670 -1.353276 2.203570 -2.026311 -4.107720 -25.529471 1.702278 -13.327214 18.186131 31.997728 -30.858211 -61.540507 -98.645690 -22.391708 6.662137 19.190858 5.666638 20.932013 1.085270 -16.695697 -25.562977 27.184930 38.672685 3.205036 1.923690 -29.659631 14.926417 -0.089839 0.084920 0.205534 -24.512870 -11.231924 15.002880 -12.139803 54.653946 -0.735375 -7.487741 -12.266637 -17.750515 0.180100 -19.642262 -3.016491
-28.328429 75.494754 131.011208 -154.040132 -3.166265 5.770269 5.304509 9.005998 -0.700694 0.398515 0.676165 -0.077527 0.616411 1.046706 -0.117998 4.537419 7.773120 -0.608762 -4.594071 13.797980 -4.343889 -6.942603 -10.622658 -6.370645 -0.628714 -2.913488 -2.534958 3.198568 -24.557784 54.236621 32.937433 -3.251736 0.447992 -2.512762 -3.472312 -25.713349 -1.445621 -12.341235 17.341203 30.238154 -34.463312 -62.649486 -96.033817 -23.670020 4.421045 19.191584 5.777689 21.801538 -0.901313 -14.601781 -25.629713 25.388461 37.437367 3.250471 1.491515 -29.330977 14.863420 -0.045520 0.124479 0.041288 -19.955265 -12.453205 17.956892 -11.214315 53.482607 -2.234221 -13.159165 -10.551844 -14.630270 0.251770 -20.434251 -3.126843
-27.945765 75.847220 130.739221 -149.607459 -4.183626 4.208549 4.343542 8.890336 0.349310 0.299250 0.636775 0.009161 0.466122 0.991703 0.015711 3.687002 7.777429 0.342551 -5.181794 13.951083 -3.906600 -8.226046 -10.329297 -5.316631 -0.252448 -2.335573 -2.622821 5.617315 -24.799696 53.565370 33.025268 -4.419379 -0.841619 -3.278650 -2.772195 -25.667836 -5.428838 -11.354480 16.320967 26.123394 -37.416763 -63.237560 -95.418575 -22.805408 2.819352 19.118333 5.778849 22.856048 -3.810847 -11.407296 -24.558595 23.681455 35.116753 3.286039 0.739684 -28.623805 14.595846 -0.025606 0.155390 -0.046239 -14.412478 -15.024340 22.076418 -11.636953 53.592269 -4.999716 -18.646277 -7.165288 -13.290131 0.228575 -22.747550 -1.827003
-27.517261 76.280886 130.244710 -144.995662 -5.601342 1.685113 3.231005 9.004825 1.919048 0.208249 0.650370 0.130914 0.325202 1.013349 0.205057 2.683333 7.969815 1.786900 -5.730015 13.947967 -3.268117 -9.513152 -10.301346 -3.897015 0.215357 -1.190769 -3.059478 8.180035 -24.903613 54.656981 36.625245 -1.715399 -1.181539 -4.312929 -2.389248 -25.511455 -9.440286 -10.657474 15.183243 18.937957 -39.796549 -62.728296 -96.331692 -21.886530 1.242265 19.229338 5.885881 23.364277 -6.502914 -6.855498 -22.755907 21.186668 31.879680 3.332306 0.283835 -27.360496 14.158309 0.044684 0.034303 -0.159951 -8.100526 -18.509307 26.696692 -8.704817 55.549298 -5.722529 -23.601906 -2.990603 -13.724043 -0.107502 -24.861017 0.731177
-27.148729 76.671953 129.554937 -140.618165 -7.364211 -1.526463 1.934855 9.426963 3.966992 0.121148 0.744573 0.304871 0.188851 1.150090 0.471714 1.603624 8.342528 3.547709 -6.089308 13.809813 -2.548708 -10.480739 -10.505105 -2.391719 0.763536 0.344827 -3.783016 12.046223 -25.898695 56.396078 41.306510 2.588166 -0.447707 -5.657413 -2.024382 -25.097747 -12.935898 -10.572748 13.898265 7.266016 -41.042940 -59.941878 -98.072171 -20.795761 0.067045 19.185558 5.986626 22.398803 -7.796052 -1.013749 -20.638485 16.712250 28.022541 3.302112 0.667676 -25.557413 13.851870 0.087476 -0.227958 -0.378812 -2.723673 -21.786235 31.892045 -1.490875 58.792725 -4.757902 -25.626602 1.196344 -14.850975 -0.578181 -26.570966 3.907140
-26.937427 76.928330 128.688038 -136.857185 -9.478091 -5.063113 0.882293 10.227253 6.097530 0.029256 0.912610 0.522987 0.047807 1.388053 0.795761 0.642055 8.844693 5.138328 -6.336919 13.645413 -1.737277 -11.279319 -10.739159 -0.752255 1.151876 1.636174 -4.040656 17.871975 -28.083659 57.946248 45.189656 7.589120 1.943608 -6.168448 -1.777644 -24.044521 -16.719580 -11.208007 13.017699 -6.560159 -40.804254 -55.557974 -99.343443 -19.104285 -2.108603 19.065174 6.041645 21.115356 -7.150541 5.742954 -17.930216 10.527431 23.970552 3.021801 1.467168 -23.563424 13.894651 0.154268 -0.445698 -0.552740 1.391723 -23.832557 38.270566 7.768842 62.271684 -4.010407 -24.672522 4.806657 -14.131654 -1.197321 -28.070787 6.404742
-26.899949 76.882175 127.850317 -133.788467 -10.730545 -8.477723 0.079347 10.596735 7.916613 -0.056834 1.022911 0.744597 -0.080371 1.536994 1.118342 -0.046690 8.928670 6.506662 -6.601035 13.597861 -0.955072 -12.093359 -10.742140 0.830691 1.330708 3.404082 -3.795304 24.603807 -31.901820 59.696620 47.749835 13.017067 5.511194 -6.288185 -1.875598 -22.991135 -21.575175 -12.199316 12.831343 -19.185146 -39.829570 -52.006491 -98.986572 -17.582468 -5.672644 18.870760 5.180221 18.631321 -4.816255 11.527438 -14.448822 4.417268 20.021816 2.948453 1.913741 -22.140187 14.151422 0.061115 -0.157971 -0.699518 5.817184 -26.387522 44.164626 15.430788 65.289345 -3.956479 -21.260197 7.019291 -12.303089 -1.915676 -28.331175 8.705575
-27.034739 76.590319 127.170813 -131.568250 -10.927738 -11.368607 -0.521755 10.199552 9.434138 -0.132804 1.027320 0.933087 -0.192019 1.533560 1.391454 -0.595789 8.508349 7.668016 -6.953140 13.855057 -0.540585 -12.902547 -10.197556 1.722775 3.461281 5.873128 -2.444171 31.226943 -35.450285 60.232331 48.525046 16.943286 7.490697 -5.867957 -2.281792 -22.571796 -28.172648 -12.085421 12.780979 -26.092396 -38.990184 -51.404796 -98.879621 -15.337603 -9.958661 18.493069 4.043104 16.484625 -2.027010 15.316483 -10.895384 -0.176566 16.603256 2.927844 1.769399 -20.942288 14.612093 0.104863 0.051787 -0.655876 12.098589 -30.552827 46.784874 19.328930 66.938025 -3.092342 -17.973905 7.386761 -10.133851 -2.473387 -28.466590 10.364857
